<?xml version="1.0" encoding="utf-8"?>
<!-- Generator: Adobe Illustrator 26.5.0, SVG Export Plug-In . SVG Version: 6.00 Build 0)  -->
<svg version="1.1" id="Layer_1" xmlns="http://www.w3.org/2000/svg" xmlns:xlink="http://www.w3.org/1999/xlink" x="0px" y="0px"
	 viewBox="0 0 1024 1024" style="enable-background:new 0 0 1024 1024;" xml:space="preserve">
<style type="text/css">
	.st0{fill:none;stroke:url(#SVGID_1_);stroke-width:20;}
	.st1{fill:#10E7FF;}
	.st2{fill:#FFFFFF;}
	.st3{fill:#FF00A8;}
	.st4{fill:url(#SVGID_00000013178116914210685850000002755610792214590858_);}
	.st5{font-family:'Arial-Black';}
	.st6{font-size:79.8754px;}
	.st7{font-size:79.868px;}
	.st8{font-size:79.8717px;}
	.st9{font-size:79.8799px;}
	.st10{font-size:79.8655px;}
	.st11{font-size:79.872px;}
	.st12{font-size:79.8782px;}
	.st13{fill:#10E7FF;stroke:#000000;stroke-width:2;stroke-miterlimit:10;}
	.st14{stroke:#000000;stroke-width:2;stroke-miterlimit:10;}
</style>
<g>
	<g>
		<path d="M878.6,1024H145.4C65.4,1024,0,958.6,0,878.6V145.4C0,65.4,65.4,0,145.4,0h733.2c80,0,145.4,65.4,145.4,145.4v733.2
			C1024,958.6,958.6,1024,878.6,1024z"/>
		
			<linearGradient id="SVGID_1_" gradientUnits="userSpaceOnUse" x1="1058.738" y1="812.6695" x2="1060.1876" y2="813.0003" gradientTransform="matrix(776 0 0 -785 -821376 638625)">
			<stop  offset="0" style="stop-color:#10E7FF"/>
			<stop  offset="0.5" style="stop-color:#FF00A8"/>
			<stop  offset="1" style="stop-color:#483F99"/>
		</linearGradient>
		<path class="st0" d="M422.5,165c1.3-16.4,2.6-32.8,3.9-49.3c67-13.9,134-27.9,201-41.8c1.3,30.3,2.6,60.7,3.9,91l283.5,41.3
			c-2.9,75.6-38.9,497.9-273.3,672c-42.6,31.6-86.8,54.8-130.3,71.7c-65.7-19.3-115.5-47.3-152-73.5
			C119.3,704,122.1,269.6,123.3,219C135.7,204.9,422.5,165,422.5,165z"/>
		<g>
			<g>
				
					<image style="overflow:visible;opacity:0.75;" width="883" height="400" xlink:href="F2D4B41A6F64BC2D.png"  transform="matrix(1 0 0 1 11 317)">
				</image>
				<g>
					<g>
						<g>
							<g>
								<g>
									<g>
										<path class="st1" d="M602,669.9l33.8-321.5l125.7,13.2c22.1,2.3,41.7,8.4,58.1,18.1c16.9,9.9,29.8,23.6,38.3,40.5
											c8.5,17,11.6,37.1,9.2,60c-2.4,22.4-9.6,41.2-21.6,56c-12,14.7-27.4,25.4-46,31.8c-13.2,4.5-27.6,6.8-42.8,6.8
											c-5.7,0-11.5-0.3-17.5-0.9l-43.1-4.5l-11.5,109.3L602,669.9z M747.4,499.3c1.9,0.2,3.7,0.3,5.4,0.3c5,0,9.5-0.8,13.4-2.4
											c5.2-2.1,9.3-5.3,12.5-9.7c3.3-4.4,5.2-9.6,5.8-16c0.7-6.6-0.1-12.3-2.3-17.3c-2.2-4.9-5.6-8.9-10.2-12.1
											c-4.7-3.2-10.7-5.2-17.9-6l-43.5-4.6l-6.6,63.1L747.4,499.3z"/>
										<path d="M644.7,359.3l115.8,12.2c20.8,2.2,38.8,7.8,54.1,16.7c15.3,9,26.8,21.1,34.5,36.4s10.4,33.4,8.2,54.5
											c-2.2,20.5-8.6,37.4-19.5,50.8c-10.8,13.3-24.6,22.9-41.5,28.6c-12.2,4.2-25.4,6.3-39.6,6.3c-5.3,0-10.8-0.3-16.4-0.9
											l-53-5.6l-11.5,109.3L613,661L644.7,359.3 M752.9,509.6c6.3,0,12-1.1,17.2-3.2c6.8-2.8,12.4-7.1,16.7-13
											c4.3-5.8,6.9-12.8,7.7-20.9c0.9-8.4-0.2-15.8-3.2-22.4s-7.5-12-13.7-16.2c-6.1-4.2-13.6-6.8-22.5-7.7l-53.4-5.6l-8.7,83
											l53.4,5.6C748.6,509.4,750.8,509.6,752.9,509.6 M626.9,337.4l-2.1,19.9l-31.7,301.6l-2.1,19.9l19.9,2.1l62.8,6.6l19.9,2.1
											l2.1-19.9l9.4-89.4l33.1,3.5c6.3,0.7,12.5,1,18.5,1c16.3,0,31.8-2.5,46.1-7.3c20.4-6.9,37.4-18.7,50.6-34.9
											c13.2-16.3,21.3-36.9,23.8-61.3c2.6-24.8-0.8-46.9-10.2-65.5c-9.4-18.7-23.6-33.7-42.2-44.6
											c-17.7-10.4-38.6-16.9-62.1-19.4l-115.8-12.2L626.9,337.4L626.9,337.4z M714.9,485.8l4.5-43.2l33.5,3.5
											c5.5,0.6,10,2,13.3,4.3c3.1,2.1,5.3,4.7,6.7,7.9c1.5,3.3,2,7.3,1.5,12.1c-0.5,4.5-1.8,8.2-3.9,11.1
											c-2.1,2.9-4.8,4.9-8.2,6.4c-2.7,1.1-5.9,1.7-9.5,1.7c-1.4,0-2.9-0.1-4.4-0.2L714.9,485.8L714.9,485.8z"/>
									</g>
								</g>
								<g>
									<path class="st2" d="M155.3,419.5L69.8,392l80-11.9v-0.3l40.4-5.7l11-1.6v0.1l81.6-11.5c7.9-1.1,15.6-1.7,22.8-1.7
										c12.4,0,24.1,1.7,34.6,4.9c17.1,5.3,31.2,14.7,41.7,27.8c10.4,13,17.1,29.5,19.9,49.2c2,14.6,0,29.1-6.1,43.4
										c-0.9,2.1-1.9,4.2-3.1,6.3c1.3,0.8,2.5,1.7,3.6,2.6c10.8,8.1,18.8,17.7,24,28.4c4.9,10.2,8.3,21.3,9.9,33
										c4.4,31.6-2.8,58.2-21.6,78.9c-18.3,20.3-45.9,33.1-82,38.2l-133,18.7L155.3,419.5z M263.7,606.9l59.7-8.4
										c9.7-1.4,16.7-4.9,21.4-10.9c4.6-5.9,6.3-12.9,5.1-21.3c-1.2-8.7-4.8-15.1-10.8-19.5c-4.7-3.4-10.3-5.1-17-5.1
										c-2.1,0-4.2,0.2-6.5,0.5l-59.7,8.4L263.7,606.9z M245.5,477.9l56.9-8c6.8-1,11.7-3.4,14.9-7.5c3.2-4,4.2-8.7,3.3-14.9
										c-0.9-6.2-3.2-10.4-7.3-13.4c-3.2-2.3-7-3.4-11.7-3.4c-1.5,0-3.1,0.1-4.7,0.3l-56.9,8L245.5,477.9z"/>
									<path d="M305.6,369.4c11.5,0,22,1.5,31.6,4.5c15.3,4.8,27.6,12.9,36.9,24.5s15.3,26.4,17.8,44.3c1.8,12.8,0,25.4-5.4,38
										c-2,4.7-4.7,9.2-8.1,13.6c4.4,2.2,8.3,4.6,11.8,7.2c9.5,7.2,16.5,15.4,21,24.7s7.5,19.3,9,30c4,28.7-2.4,52.3-19.1,70.8
										c-16.8,18.6-42.1,30.2-76,35L202,679.5L164.4,412l-50.8-16.4l47.5-7.1v-0.2l30.5-4.3l1.2-0.2l0,0l91.4-12.8
										C291.6,369.9,298.8,369.4,305.6,369.4 M237,489.2l66.8-9.4c9.4-1.3,16.5-5,21.3-11.2c4.9-6.1,6.7-13.6,5.4-22.5
										c-1.2-8.9-5-15.6-11.4-20.1c-4.9-3.5-10.8-5.3-17.5-5.3c-2,0-4,0.1-6.1,0.4l-66.8,9.4L237,489.2 M255.1,618.2l69.6-9.8
										c12.2-1.7,21.5-6.6,27.8-14.7c6.3-8.1,8.7-17.7,7.1-28.9c-1.6-11.5-6.6-20.2-14.8-26.2c-6.4-4.7-14.1-7-22.9-7
										c-2.5,0-5.2,0.2-7.9,0.6l-69.6,9.8L255.1,618.2 M305.6,349.4c-7.7,0-15.8,0.6-24.2,1.8l-71.6,10.1v-0.2l-19.9,2.9l-1.1,0.2
										l-30.4,4.3l-19.8,2.8l0.1,0.4l-27.9,4.1L26,388.4l81.5,26.2l38.9,12.5l35.9,255.1l2.8,19.8l19.8-2.8l123-17.2
										c38.5-5.4,68.1-19.3,88-41.4c20.9-23.1,29-52.4,24.1-87c-1.8-12.7-5.4-24.8-10.8-35.9c-5.4-11.2-13.5-21.2-24.1-29.7
										c6.6-15.7,8.8-31.8,6.5-47.9c-3-21.5-10.4-39.7-22-54.1c-11.8-14.7-27.5-25.1-46.5-31C331.7,351.2,319,349.4,305.6,349.4
										L305.6,349.4z M251.4,447.6l47-6.6c1.2-0.2,2.3-0.2,3.3-0.2c3.3,0,4.9,0.8,5.9,1.6c0.8,0.6,2.6,1.8,3.2,6.6
										c0.7,4.8-0.6,6.5-1.3,7.3c-0.6,0.8-2.3,2.9-8.5,3.8l-47,6.6L251.4,447.6L251.4,447.6z M267,559l49.8-7
										c1.8-0.3,3.5-0.4,5.1-0.4c4.6,0,8.2,1,11.2,3.2c2.6,1.9,5.7,5,6.8,12.8c1,7.4-1.1,11.3-3,13.8s-5.6,5.9-14.9,7.2l-49.8,7
										L267,559L267,559z"/>
								</g>
								<g>
									<g>
										<g>
											<polygon class="st3" points="569.5,670.9 512.2,583 454.4,670.9 356.8,670.9 464.4,506.4 356.8,342.4 454.4,342.4 
												512.1,430.1 569.5,342.4 667.1,342.4 560,506.4 667.1,670.9 											"/>
										</g>
									</g>
									<path d="M648.7,352.4L548,506.4l100.6,154.5H575l-62.7-96.1L449,660.9h-73.7l101.1-154.5l-101.1-154H449l63.1,96l62.8-96
										L648.7,352.4 M685.6,332.4h-37H575h-10.8l-5.9,9l-46.1,70.4l-46.4-70.5l-5.9-9H449h-73.7h-37l20.3,31l93.9,143.1L358.6,650
										l-20.2,30.9h37H449h10.8l5.9-9l46.4-70.6l46,70.5l5.9,9.1h11h73.7h36.9L665.4,650l-93.5-143.5l93.5-143.1L685.6,332.4
										L685.6,332.4z"/>
								</g>
							</g>
						</g>
					</g>
				</g>
			</g>
			<g>
				<g>
					<path d="M160.4,705.1c113.7-16.1,229-24.4,342.7-24.4c113.6,0,229,8.2,342.7,24.4l-38.9,108.7c-100.8-12.7-203-19.1-303.8-19.1
						c-99.5,0-200.5,6.3-300.1,18.6c-1.4,0.2-2.6,0.3-3.8,0.5L160.4,705.1z"/>
					
						<linearGradient id="SVGID_00000122688857790259823280000014455501460262286733_" gradientUnits="userSpaceOnUse" x1="153.8" y1="325" x2="852.3" y2="325" gradientTransform="matrix(1 0 0 1 0 424)">
						<stop  offset="0" style="stop-color:#10E7FF"/>
						<stop  offset="0.5" style="stop-color:#FF00A8"/>
						<stop  offset="1" style="stop-color:#483F99"/>
					</linearGradient>
					<path style="fill:url(#SVGID_00000122688857790259823280000014455501460262286733_);" d="M503.2,685.7
						c111.3,0,224.1,8,335.6,23.9l-35.6,101.8c-99.6-12.6-200.5-19-299.9-19s-200.4,6.4-299.9,19L185,758.9l-17.2-49.3
						C279.1,693.7,391.9,685.7,503.2,685.7 M503.2,675.9c-116.5,0-232.9,8.6-349.4,25.8c14,40.1,28.1,80.3,42.1,120.4
						c1.9-0.3,4.7-0.6,8-1.1c130.4-16.6,237.3-19,299.1-19c102.4,0,204.8,6.7,307.2,20.1l42.1-120.4
						C736.1,684.5,619.6,675.9,503.2,675.9L503.2,675.9z"/>
				</g>
				<text transform="matrix(0.9907 -0.1359 0.1359 0.9907 200.2127 790.1478)" class="st2 st5 st6">B</text>
				<text transform="matrix(0.9945 -0.1043 0.1043 0.9945 261.7709 781.7)" class="st2 st5 st7">A</text>
				<text transform="matrix(0.9975 -7.108934e-02 7.108934e-02 0.9975 323.5642 775.1811)" class="st2 st5 st6">N</text>
				<text transform="matrix(0.9993 -3.759152e-02 3.759152e-02 0.9993 389.9404 770.4863)" class="st2 st5 st8">D</text>
				<text transform="matrix(1 -5.099958e-03 5.099958e-03 1 452.0164 768.1342)" class="st3 st5 st6">X</text>
				<text transform="matrix(0.9997 2.622593e-02 -2.622593e-02 0.9997 514.1648 767.8696)" class="st3 st5 st9">P</text>
				<text transform="matrix(0.9988 4.820326e-02 -4.820326e-02 0.9988 571.8235 769.5534)" class="st2 st5 st10">.</text>
				<text transform="matrix(0.9976 6.892253e-02 -6.892253e-02 0.9976 598.4016 770.6965)" class="st1 st5 st6">L</text>
				<text transform="matrix(0.9959 9.067250e-02 -9.067250e-02 0.9959 651.5433 774.4899)" class="st1 st5 st6">I</text>
				<text transform="matrix(0.9934 0.1145 -0.1145 0.9934 682.5211 777.1248)" class="st1 st5 st11">V</text>
				<text transform="matrix(0.9895 0.1447 -0.1447 0.9895 744.2418 784.2744)" class="st1 st5 st12">E</text>
			</g>
		</g>
	</g>
</g>
<g>
	<path class="st13" d="M604.9,171.9l-0.8-5.2c0.3-16.6,0.5-31.4,0.7-44.2c0.1-3.6,0.2-6.3-1.2-9c-2.1-4.2-6.3-6.5-11.1-5.5
		c-43.7,9.7-86.4,19.1-128.1,28.1c-5.2,1.1-8.7,4.1-10.4,8.8c-0.7,2-1,4.4-1,6.5c-0.6,36.4-1.2,71.3-1.7,104.7l0,0
		c0,0.1-0.1,0.1-0.2,0.1c-12.2-1.2-25.1,3-35.1,9.9c-9.9,6.8-18.4,17.2-21,29c-3.9,18.5,7.6,34.5,25.8,37.6
		c7.9,1.3,15.7,0.7,23.4-1.9c17.4-5.9,32.8-20.7,36.2-39.2c0.4-2.2,0.6-5.6,0.7-10.2c0.1-4.9,0.5-32.9,1.4-83.9
		c0-0.1,0.1-0.3,0.2-0.3l90.6-19.8l0,0c0.1,0,0.1,0.1,0.1,0.1l-0.9,49.9l0,0c0,0.1-0.1,0.1-0.2,0.1c-4.3-0.4-8.7-0.2-13.2,0.6
		c-12.9,2.5-23.9,8.6-32.8,18.4c-7.6,8.3-12.6,19.5-11.3,30.9c0.8,6.8,3.5,12.7,8.3,17.6c8.3,8.6,20.9,11.4,32.5,9.7
		c9-1.3,17.2-4.6,24.5-9.9c10.7-7.7,19.2-19.1,21.5-32.3c0.3-1.6,0.5-4.8,0.5-9.6c0.5-30.5,1-57.5,1.4-80.9L604.9,171.9z"/>
	<path class="st14" d="M594.9,116.8c0.3,0,0.7,0.6,0.7,0.8c0.3,0.6,0.3,2.1,0.3,4.4v0.4c-0.2,12.9-0.5,27.6-0.7,44.2v0.7l0,0
		l-0.1,4.6c-0.4,23.4-0.9,50.4-1.4,80.9c-0.1,6.2-0.4,7.9-0.4,8.2c-1.7,9.9-8.2,19.6-17.9,26.6c-6.2,4.5-12.9,7.2-20.5,8.3
		c-1.9,0.3-3.9,0.4-5.8,0.4c-7.7-0.1-14.5-2.8-18.9-7.4c-3.4-3.5-5.3-7.5-5.8-12.3c-0.9-7.9,2.4-16.6,9-23.8
		c7.7-8.4,16.8-13.5,27.9-15.6c2.6-0.5,5.2-0.7,7.8-0.7c1,0,1.9,0.1,2.9,0.2h0.4h0.4c4.7,0.1,8.7-3.4,9.3-8.1v-0.4v-0.1l0,0v-0.4
		l0.9-49.9c0.1-5-3.9-9.2-9-9.3h-1.2l-1,0.3L481,188.5c-4.2,0.9-7.2,4.6-7.3,8.9c-0.9,51.6-1.4,79-1.4,84c-0.1,5.4-0.4,7.8-0.6,8.7
		c-2.6,14.1-14.8,27.1-30.2,32.3c-4.3,1.5-8.7,2.1-13.1,2.1c-1.9,0-3.9-0.2-5.9-0.6c-6.6-1.1-12.1-4.5-15.5-9.5
		c-3.3-4.9-4.4-11-3-17.3c1.8-8.5,8.3-17.3,17.3-23.5c8-5.5,17.7-8.6,26.4-8.5c0.9,0,1.8,0.1,2.7,0.2h0.4h0.4
		c4.7,0.1,8.7-3.4,9.3-8.1l0.1-0.4v-0.1l0,0v-0.4c0.5-33.3,1.1-68.5,1.7-104.7c0-1.8,0.3-3.1,0.5-3.6c0.5-1.5,1.4-2.5,3.8-3
		c41.5-9,84.6-18.5,128.1-28.1C594.7,116.8,594.8,116.8,594.9,116.8 M595,107.8c-0.8,0-1.6,0.1-2.4,0.3
		c-43.7,9.7-86.4,19.1-128.1,28.1c-5.2,1.1-8.7,4.1-10.4,8.8c-0.7,2-1,4.4-1,6.5c-0.6,36.4-1.2,71.3-1.7,104.7l0,0
		c0,0.1-0.1,0.1-0.2,0.1l0,0c-1.2-0.1-2.3-0.2-3.5-0.2c-11.2-0.2-22.6,3.8-31.6,10.1c-9.9,6.8-18.4,17.2-21,29
		c-3.9,18.5,7.6,34.5,25.8,37.6c2.4,0.4,4.8,0.6,7.3,0.7c5.4,0.1,10.8-0.8,16.1-2.5c17.4-5.9,32.8-20.7,36.2-39.2
		c0.4-2.2,0.6-5.6,0.7-10.2c0.1-4.9,0.5-32.9,1.4-83.9c0-0.1,0.1-0.3,0.2-0.3l90.6-19.8l0,0c0.1,0,0.1,0.1,0.1,0.1l-0.9,49.9l0,0
		c0,0.1-0.1,0.1-0.2,0.1l0,0c-1.2-0.1-2.4-0.2-3.6-0.2c-3.1-0.1-6.3,0.2-9.6,0.8c-12.9,2.5-23.9,8.6-32.8,18.4
		c-7.6,8.3-12.6,19.5-11.3,30.9c0.8,6.8,3.5,12.7,8.3,17.6c6.6,6.8,15.9,10,25.3,10.1c2.4,0,4.9-0.1,7.3-0.5
		c9-1.3,17.2-4.6,24.5-9.9c10.7-7.7,19.2-19.1,21.5-32.3c0.3-1.6,0.5-4.8,0.5-9.6c0.5-30.5,1-57.5,1.4-80.9l0.9-0.1l-0.8-5.2
		c0.3-16.6,0.5-31.4,0.7-44.2c0.1-3.6,0.2-6.3-1.2-9C601.9,110,598.7,107.8,595,107.8L595,107.8z"/>
</g>
</svg>
